<svg width="18" height="18" viewBox="0 0 18 18" fill="none" xmlns="http://www.w3.org/2000/svg">
<path d="M9 14.25L8.29289 14.9571L9 15.6642L9.70711 14.9571L9 14.25ZM10 7.5C10 6.94772 9.55229 6.5 9 6.5C8.44772 6.5 8 6.94772 8 7.5L10 7.5ZM4.54289 11.2071L8.29289 14.9571L9.70711 13.5429L5.95711 9.79289L4.54289 11.2071ZM9.70711 14.9571L13.4571 11.2071L12.0429 9.79289L8.29289 13.5429L9.70711 14.9571ZM10 14.25L10 7.5L8 7.5L8 14.25L10 14.25Z" fill="#282828"/>
<path d="M3.75 6L3.75 5.25C3.75 4.42157 4.42157 3.75 5.25 3.75L12.75 3.75C13.5784 3.75 14.25 4.42157 14.25 5.25V6" stroke="#282828" stroke-width="2"/>
</svg>
