<svg width="18" height="18" viewBox="0 0 18 18" fill="none" xmlns="http://www.w3.org/2000/svg">
<path d="M14.25 10.5V9.71231C14.25 8.1048 14.25 7.30104 13.8146 6.75423C13.7207 6.63627 13.6137 6.5293 13.4958 6.43537C12.949 6 12.1452 6 10.5377 6V6C9.83857 6 9.48901 6 9.1686 5.88802C9.09748 5.86317 9.02782 5.83431 8.95996 5.8016C8.65422 5.65422 8.40704 5.40704 7.91269 4.91269L7.68198 4.68198C7.34129 4.34129 7.17094 4.17094 6.9726 4.04843C6.79 3.93564 6.59044 3.85298 6.38158 3.80362C6.1547 3.75 5.91379 3.75 5.43198 3.75V3.75C4.32887 3.75 3.77732 3.75 3.35465 3.96161C2.96833 4.15502 2.65502 4.46833 2.46161 4.85465C2.25 5.27732 2.25 5.82887 2.25 6.93198V10.25C2.25 12.1356 2.25 13.0784 2.83579 13.6642C3.42157 14.25 4.36438 14.25 6.25 14.25H10.5" stroke="#282828" stroke-width="2"/>
<path d="M12 14.25H14.25M14.25 14.25H16.5M14.25 14.25V16.5M14.25 14.25V12" stroke="#282828" stroke-width="2"/>
</svg>
