<svg width="16" height="18" viewBox="0 0 16 18" fill="none" xmlns="http://www.w3.org/2000/svg">
<path d="M5.33333 2.33334L4.62623 1.62624L5.33333 0.91913L6.04044 1.62624L5.33333 2.33334ZM6.33333 12.3333C6.33333 12.8856 5.88562 13.3333 5.33333 13.3333C4.78105 13.3333 4.33333 12.8856 4.33333 12.3333L6.33333 12.3333ZM1.29289 4.95957L4.62623 1.62624L6.04044 3.04045L2.70711 6.37378L1.29289 4.95957ZM6.04044 1.62624L9.37377 4.95957L7.95956 6.37378L4.62623 3.04045L6.04044 1.62624ZM6.33333 2.33334L6.33333 12.3333L4.33333 12.3333L4.33333 2.33334L6.33333 2.33334Z" fill="#282828"/>
<path d="M10.6667 15.6667L9.95956 16.3738L10.6667 17.0809L11.3738 16.3738L10.6667 15.6667ZM11.6667 5.66666C11.6667 5.11437 11.219 4.66666 10.6667 4.66666C10.1144 4.66666 9.66667 5.11437 9.66667 5.66666L11.6667 5.66666ZM6.62623 13.0404L9.95956 16.3738L11.3738 14.9595L8.04044 11.6262L6.62623 13.0404ZM11.3738 16.3738L14.7071 13.0404L13.2929 11.6262L9.95956 14.9595L11.3738 16.3738ZM11.6667 15.6667L11.6667 5.66666L9.66667 5.66666L9.66667 15.6667L11.6667 15.6667Z" fill="#282828"/>
</svg>
